<svg width="1111" height="196" fill="none" xmlns="http://www.w3.org/2000/svg"><g opacity=".5"><path d="M66.7 101.5c8.5 0 16 1.6 22.3 4.8a35.5 35.5 0 0 1 14.8 13.5 38 38 0 0 1 5.3 20.3c0 7-1.9 13.5-5.6 19.3A39.5 39.5 0 0 1 88.2 173c-6.5 3.3-14.1 5-22.7 5-8.5 0-16-1.6-22.3-4.9a37 37 0 0 1-14.8-13.6 38.1 38.1 0 0 1-5.3-20.1c0-7.3 1.9-13.8 5.6-19.5A38.5 38.5 0 0 1 44 106.5c6.5-3.4 14.1-5 22.7-5Zm5.5 65.7c1.9-.4 3.3-1.8 4.3-4 1-2.1 1.5-5.3 1.4-9.5-.1-4.3-.9-9.6-2.3-16a84 84 0 0 0-4.4-15.2 23 23 0 0 0-5.2-8.4c-2-1.7-4-2.3-6-1.8-1.9.5-3.3 1.8-4.3 4s-1.5 5.4-1.4 9.6c.2 4.2 1 9.5 2.3 16A86.5 86.5 0 0 0 61 157c1.7 4 3.4 6.7 5.3 8.4 1.9 1.7 3.8 2.3 5.9 1.8Zm100-6.6v-1H171V125c0-1.6-.2-2.7-.6-3.4a3 3 0 0 0-2-1.4l-1.6-.5c-1-.4-1.8-.9-2.3-1.5-.4-.7-.7-1.5-.7-2.5a4 4 0 0 1 1-2.9c.7-.6 1.9-1.3 3.7-2l16.6-6.5 6.2-2.2c1.6-.4 3.1-.6 4.6-.6 2.3 0 4 .6 5.1 1.9a6.6 6.6 0 0 1 1.8 4.8v52c0 2 .2 3.5.5 4.3a3 3 0 0 0 1.6 1.8l1.6.7c1.2.5 2 1.1 2.5 1.9.5.7.7 1.6.7 2.6 0 1.4-.4 2.5-1.3 3.3-1 .8-2.4 1.2-4.4 1.2h-18.3c-3.6 0-6.7-1.5-9.5-4.6-2.7-3-4-6.6-4-10.8Zm-49.6-6.5V125c0-1.6-.2-2.7-.7-3.4a3 3 0 0 0-1.9-1.4l-1.6-.5c-1-.4-1.8-.9-2.3-1.5-.5-.7-.7-1.5-.7-2.5a4 4 0 0 1 1-2.9c.6-.6 1.8-1.3 3.6-2l16.7-6.5c2.7-1 4.8-1.8 6.4-2.2 1.5-.4 2.9-.6 4-.6 2.5 0 4.3.6 5.5 1.9a6.6 6.6 0 0 1 1.8 4.8v41.4c0 3.2.7 5.6 2.2 7.2a8.1 8.1 0 0 0 6.2 2.4 15.2 15.2 0 0 0 10-3.8l2.6-2.3 4.5 4.8-2.3 2a85.4 85.4 0 0 1-18.3 14.2 32 32 0 0 1-14.4 4c-6.6 0-12-2.2-16.2-6.7a24.6 24.6 0 0 1-6.1-17.3Zm131.6-19c0-7.7 1-14 3-19s4.6-8.6 8-11c3.3-2.4 7-3.6 10.9-3.6 5.3 0 9.3 1.5 12.1 4.8 2.9 3.1 4.3 7.9 4.3 14.3 0 6.5-1.3 11.3-4 14.5-2.6 3-6 4.6-10.2 4.6-4.2 0-7.4-1-9.6-3.2a12.6 12.6 0 0 1-3.1-9.1v-3.2c0-1.3-.4-2.2-1-2.9-.4-.7-1.2-1-2.3-1-1 0-2 .4-2.7 1.3-.8.9-1.4 2.3-1.8 4.3a37 37 0 0 0-.7 8l-3 1.2Zm.8-26.9 2.1 15.7v36.3c0 1.8.3 3 .8 3.8.5.7 1.6 1.2 3.4 1.6l5.7 1.1a6 6 0 0 1 3.3 1.6c.7.7 1 1.8 1 3.1a4 4 0 0 1-1.4 3.4c-1 .8-2.4 1.2-4.3 1.2H224c-2 0-3.4-.4-4.3-1.2a4.2 4.2 0 0 1-1.4-3.3c0-1 .3-1.9.8-2.6.5-.8 1.3-1.4 2.4-1.9l1.7-.8a3 3 0 0 0 1.6-1.7c.3-.8.4-2.3.4-4.3v-34.9c0-1.6-.2-2.7-.7-3.4a3 3 0 0 0-1.8-1.4l-1.7-.5c-1-.4-1.8-.9-2.3-1.5-.5-.7-.7-1.5-.7-2.5a4 4 0 0 1 1-2.8c.7-.8 2-1.5 3.7-2.2l16-6.3c3.6-1.4 6.2-2.3 7.7-2.7 1.6-.3 2.8-.5 3.6-.5 1.4 0 2.5.5 3.3 1.5.7 1 1.3 2.8 1.6 5.2Zm149 16.4c0 3.8-1.4 7-4.3 9.7-2.8 2.6-6.7 4-11.5 4-4.6 0-8.1-1.3-10.5-3.7a13.5 13.5 0 0 1-3.4-9.5v-2.4c0-3.3-.7-5.8-2-7.7a6.2 6.2 0 0 0-5.4-2.8c-1.7 0-3.4.6-5 2a13.8 13.8 0 0 0-3.6 6c-1 2.6-1.4 6-1.4 10 0 5.9 1 10.7 3 14.6a21 21 0 0 0 19.9 11.8c3.2 0 6-.4 8.6-1.2 2.6-.8 5.2-2.3 7.7-4.5a25 25 0 0 1 3.3-2.7c.8-.4 1.5-.6 2.2-.6 1 0 1.7.5 2.2 1.5.5 1 .7 2.2.7 3.7 0 4.4-1.5 8.6-4.5 12.5-3 3.8-7 7-12.4 9.3a45.2 45.2 0 0 1-18.4 3.5c-7.7 0-14.5-1.5-20.6-4.5a34.1 34.1 0 0 1-19.7-31.7 42 42 0 0 1 5-20.8 37.3 37.3 0 0 1 14.6-14.4 45.2 45.2 0 0 1 22.3-5.3c6.8 0 12.7 1.1 17.7 3.2 5 2 8.8 4.8 11.5 8.3 2.7 3.5 4 7.4 4 11.7Zm52-23.1c8.6 0 16 1.6 22.3 4.8a35.5 35.5 0 0 1 14.8 13.5 38 38 0 0 1 5.3 20.3c0 7-1.8 13.5-5.5 19.3a39.4 39.4 0 0 1-15.4 13.7c-6.5 3.3-14 5-22.6 5-8.5 0-16-1.6-22.3-4.9a37 37 0 0 1-14.9-13.6 38.1 38.1 0 0 1-5.2-20.1c0-7.3 1.8-13.8 5.5-19.5a38.5 38.5 0 0 1 15.3-13.5c6.6-3.4 14.2-5 22.8-5Zm5.5 65.7c2-.4 3.4-1.8 4.4-4 1-2.1 1.4-5.3 1.3-9.5 0-4.3-.8-9.6-2.2-16a84 84 0 0 0-4.4-15.2 23 23 0 0 0-5.3-8.4c-1.9-1.7-3.9-2.3-6-1.8-1.8.5-3.3 1.8-4.3 4s-1.4 5.4-1.3 9.6c.1 4.2.9 9.5 2.2 16a86.5 86.5 0 0 0 4.5 15.1c1.6 4 3.4 6.7 5.2 8.4 2 1.7 3.9 2.3 6 1.8Zm83.7-97.7v90.8c0 2 .2 3.4.5 4.2a3 3 0 0 0 1.6 1.8l1.6.7c1.2.5 2 1.1 2.5 1.9.5.7.7 1.6.7 2.6 0 1.4-.4 2.5-1.3 3.3-1 .8-2.4 1.2-4.4 1.2h-34.2c-2 0-3.4-.4-4.3-1.2a4.2 4.2 0 0 1-1.4-3.3c0-1 .3-1.9.8-2.6.5-.8 1.3-1.4 2.5-1.9l1.6-.8a3 3 0 0 0 1.6-1.7c.3-.8.4-2.3.4-4.3V86.3c0-1.6-.2-2.7-.6-3.4a3 3 0 0 0-2-1.4l-1.6-.5c-1-.4-1.8-.9-2.3-1.5-.4-.7-.7-1.5-.7-2.5a4 4 0 0 1 1-2.8c.7-.8 1.9-1.5 3.7-2.2l16.6-6.4c2.7-1 4.9-1.8 6.4-2.2 1.6-.4 3-.6 4.1-.6 2.4 0 4.2.6 5.4 1.9a6.6 6.6 0 0 1 1.8 4.8Zm52.8 0v90.8c0 2 .1 3.4.4 4.2a3 3 0 0 0 1.6 1.8l1.7.7c1.1.5 2 1.1 2.4 1.9.5.7.8 1.6.8 2.6 0 1.4-.5 2.5-1.4 3.3-.9.8-2.3 1.2-4.3 1.2H565c-2 0-3.5-.4-4.4-1.2a4.2 4.2 0 0 1-1.3-3.3c0-1 .2-1.9.7-2.6.5-.8 1.4-1.4 2.5-1.9l1.7-.8a3 3 0 0 0 1.5-1.7c.3-.8.5-2.3.5-4.3V86.3c0-1.6-.2-2.7-.7-3.4a3 3 0 0 0-1.9-1.4L562 81c-1-.4-1.8-.9-2.3-1.5-.5-.7-.7-1.5-.7-2.5a4 4 0 0 1 1-2.8c.6-.8 1.8-1.5 3.6-2.2l16.7-6.4c2.7-1 4.8-1.8 6.4-2.2 1.5-.4 2.9-.6 4-.6 2.5 0 4.3.6 5.5 1.9a6.6 6.6 0 0 1 1.8 4.8Zm90 60.9c0 3.5-1 6.2-2.9 8.2-1.9 1.9-4.6 2.8-8.1 2.8h-44.5v-7.8h20c2.8 0 4.1-1.3 4.1-3.9 0-6.3-.7-10.8-2.1-13.5-1.5-2.7-3.4-4-5.8-4-1.8 0-3.3.6-4.7 2a13.6 13.6 0 0 0-3.4 6c-.8 2.6-1.2 6-1.2 10 0 9.2 2 15.8 6.1 20 4.1 4.3 9.7 6.4 16.8 6.4 3.3 0 6.3-.4 9-1.2 2.7-.7 5.4-2.2 8-4.5a25 25 0 0 1 3.3-2.7c.7-.4 1.5-.6 2.2-.6 1 0 1.7.5 2.1 1.5.5 1 .8 2.2.8 3.7a20 20 0 0 1-4.6 12.5c-3 3.8-7.2 7-12.6 9.3a46.3 46.3 0 0 1-18.7 3.5c-7.7 0-14.6-1.5-20.7-4.5a34.1 34.1 0 0 1-19.8-31.7c0-8.2 1.7-15.3 5-21.3 3.2-6 7.9-10.8 14-14.1 6.3-3.4 13.9-5 22.7-5 7.7 0 14.2 1.2 19.4 3.7a26.6 26.6 0 0 1 15.6 25.2Zm82.6-5.8c0 3.8-1.5 7-4.4 9.7-2.8 2.6-6.7 4-11.5 4-4.6 0-8.1-1.3-10.5-3.7a13.5 13.5 0 0 1-3.4-9.5v-2.4c0-3.3-.7-5.8-2-7.7a6.2 6.2 0 0 0-5.4-2.8c-1.7 0-3.4.6-4.9 2a13.8 13.8 0 0 0-3.7 6c-1 2.6-1.4 6-1.4 10 0 5.9 1 10.7 3 14.6a21 21 0 0 0 19.9 11.8c3.2 0 6-.4 8.6-1.2 2.6-.8 5.2-2.3 7.7-4.5a25 25 0 0 1 3.3-2.7c.8-.4 1.5-.6 2.2-.6 1 0 1.7.5 2.2 1.5.5 1 .7 2.2.7 3.7 0 4.4-1.5 8.6-4.5 12.5-3 3.8-7 7-12.4 9.3a45.2 45.2 0 0 1-18.4 3.5c-7.7 0-14.5-1.5-20.6-4.5a34.1 34.1 0 0 1-19.7-31.7 42 42 0 0 1 5-20.8 37.3 37.3 0 0 1 14.6-14.4 45.2 45.2 0 0 1 22.3-5.3c6.8 0 12.7 1.1 17.7 3.2 5 2 8.8 4.8 11.5 8.3 2.7 3.5 4 7.4 4 11.7Zm11.8-11.1-2.4-1c-1-.5-1.9-1-2.4-1.8a4 4 0 0 1-.9-2.5c0-1.5.5-2.5 1.5-3.3a6 6 0 0 1 3.8-1.2h4.1c1 0 1.8-.3 2.6-.8.9-.5 2-1.4 3.3-2.7L804.2 88c1.6-1.7 3.2-2.9 4.6-3.7a8.6 8.6 0 0 1 4-1.2c1.5 0 2.7.5 3.5 1.4.8 1 1.2 2.3 1.2 4.1v60.2c0 3.7.7 6.4 2 8.3a6 6 0 0 0 5.3 2.9c2 0 3.4-.5 4.4-1.5 1-.9 1.8-2 2.4-3.2a25 25 0 0 1 2-3.3c.8-1 1.7-1.4 3-1.4 1 0 1.7.3 2.3 1 .6.8 1 2 1 3.7 0 4.2-1.3 8-3.8 11.6a25.6 25.6 0 0 1-10 8.2c-4.4 2-9.3 3.1-14.8 3.1-8.1 0-14.4-2-18.9-5.8-4.4-4-6.7-10-6.7-17.9v-36c0-1.5-.2-2.6-.8-3.2a6.2 6.2 0 0 0-2.5-1.8Zm24.2.8v-10.6H834c1.5 0 2.7.3 3.6 1 1 .7 1.5 1.6 1.5 2.9 0 1.9-1 3.5-2.8 4.8-1.9 1.3-5 2-9.2 2h-20.5Zm78-6.1v52c0 2 .2 3.5.5 4.3a3 3 0 0 0 1.6 1.8l1.6.7c1.2.5 2 1.1 2.5 1.9.5.7.7 1.6.7 2.6 0 1.4-.4 2.5-1.3 3.3-.9.8-2.4 1.2-4.4 1.2h-34.2c-2 0-3.4-.4-4.3-1.2a4.2 4.2 0 0 1-1.4-3.3c0-1 .3-1.9.8-2.6.5-.8 1.3-1.4 2.5-1.9l1.6-.8a3 3 0 0 0 1.6-1.7c.3-.8.4-2.3.4-4.3V125c0-1.6-.2-2.7-.6-3.4a3 3 0 0 0-1.9-1.4l-1.7-.5c-1-.4-1.8-.9-2.3-1.5-.4-.7-.7-1.5-.7-2.5a4 4 0 0 1 1-2.9c.7-.6 1.9-1.3 3.7-2l16.6-6.5c2.7-1 4.9-1.8 6.4-2.2 1.6-.4 3-.6 4.1-.6 2.4 0 4.2.6 5.4 1.9a6.6 6.6 0 0 1 1.8 4.8Zm-17.5-13.4c-5.6 0-10-1.3-13.3-3.8a12.9 12.9 0 0 1-4.9-10.7c0-4.5 1.7-8 5-10.5A21 21 0 0 1 867 66a21 21 0 0 1 13.3 3.8c3.2 2.5 4.8 6 4.8 10.5s-1.6 8-4.8 10.7a20.7 20.7 0 0 1-13.3 3.8Zm74.6 6.7c8.5 0 15.9 1.6 22.2 4.8a35.5 35.5 0 0 1 14.8 13.5 38 38 0 0 1 5.3 20.3c0 7-1.8 13.5-5.5 19.3A39.4 39.4 0 0 1 963 173c-6.5 3.3-14 5-22.6 5-8.5 0-16-1.6-22.3-4.9a37 37 0 0 1-14.9-13.6 38.1 38.1 0 0 1-5.2-20.1c0-7.3 1.8-13.8 5.5-19.5a38.5 38.5 0 0 1 15.3-13.5c6.6-3.4 14.2-5 22.8-5Zm5.4 65.7c2-.4 3.4-1.8 4.4-4 1-2.1 1.4-5.3 1.3-9.5 0-4.3-.8-9.6-2.2-16a84 84 0 0 0-4.4-15.2 23 23 0 0 0-5.3-8.4c-1.9-1.7-3.9-2.3-6-1.8-1.8.5-3.3 1.8-4.3 4s-1.4 5.4-1.3 9.6c.1 4.2.9 9.5 2.2 16A86.5 86.5 0 0 0 936 157c1.6 4 3.4 6.7 5.2 8.4 2 1.7 3.9 2.3 6 1.8Zm83.7-59v52c0 2 .2 3.5.5 4.3.3.8.8 1.3 1.6 1.8l1.5.8c1.6 1 2.4 2.3 2.4 4.1 0 3.2-1.9 4.8-5.7 4.8h-33.3c-2 0-3.4-.4-4.3-1.2a4.2 4.2 0 0 1-1.4-3.3c0-1 .3-1.9.8-2.6.5-.8 1.3-1.4 2.5-1.9l1.6-.8a3 3 0 0 0 1.6-1.7c.3-.8.4-2.3.4-4.3V125c0-1.6-.2-2.7-.6-3.4a3 3 0 0 0-2-1.4l-1.6-.5c-1-.4-1.8-.9-2.3-1.5-.4-.7-.7-1.5-.7-2.5a4 4 0 0 1 1-2.9c.7-.6 1.9-1.3 3.7-2l16.6-6.5 6.2-2.2c1.6-.4 3.1-.6 4.6-.6 2.3 0 4 .6 5.1 1.9a6.6 6.6 0 0 1 1.8 4.8Zm-2.7 18.3-4.5-4.8 2.3-2.1c7-6.8 13.2-11.4 18.4-14.1 5.2-2.7 10-4 14.3-4a21 21 0 0 1 16.2 6.6 24.4 24.4 0 0 1 6.1 17.4v34.8c0 2 .2 3.4.5 4.2a3 3 0 0 0 1.6 1.8l1.6.7c1.2.5 2 1.1 2.5 1.9.5.7.7 1.6.7 2.6 0 1.4-.4 2.5-1.3 3.3-1 .8-2.4 1.2-4.4 1.2H1049c-3.8 0-5.8-1.6-5.8-4.8 0-1.8.9-3.2 2.5-4.1l1.5-.8c.8-.5 1.3-1 1.6-1.9.3-.8.4-2.2.4-4.2V130c0-3.2-.7-5.6-2.2-7.2a7.9 7.9 0 0 0-6.2-2.4 15.2 15.2 0 0 0-10 3.9l-2.6 2.3Z" fill="#83888F"/><path fill="url(#a)" d="M0 0h1111v196H0z"/></g><defs><linearGradient id="a" x1="0" y1="0" x2="0" y2="196" gradientUnits="userSpaceOnUse"><stop stop-color="#FEFCF7" stop-opacity="0"/><stop offset="1" stop-color="#FEFCF7"/></linearGradient></defs></svg>